Coordinates
version=1
nRows=7
nColumns=40
inDegrees=yes

Units are S.I. units (second, meters, Newtons, ...)
Angles are in degrees.

endheader
time	pelvis_tilt	pelvis_list	pelvis_rotation	pelvis_tx	pelvis_ty	pelvis_tz	hip_flexion_r	hip_adduction_r	hip_rotation_r	knee_angle_r	knee_angle_r_beta	ankle_angle_r	subtalar_angle_r	mtp_angle_r	hip_flexion_l	hip_adduction_l	hip_rotation_l	knee_angle_l	knee_angle_l_beta	ankle_angle_l	subtalar_angle_l	mtp_angle_l	lumbar_extension	lumbar_bending	lumbar_rotation	arm_flex_r	arm_add_r	arm_rot_r	elbow_flex_r	pro_sup_r	wrist_flex_r	wrist_dev_r	arm_flex_l	arm_add_l	arm_rot_l	elbow_flex_l	pro_sup_l	wrist_flex_l	wrist_dev_l
      1.47000000	      3.33483550	     -4.85698807	     -4.44524727	      0.79598794	      0.89018797	      1.46347972	    -12.76187150	      4.83682721	    -14.72763173	    -17.58487926	     -0.30691404	     11.25961464	     12.78551819	     -9.35231457	     23.11436455	      5.62122527	     11.03376068	    -16.15560221	     -0.28196845	     -0.25021820	     -3.95573703	    -13.25789060	     -7.86153993	      6.33020115	      6.43736068	     16.92692532	    -14.97628298	     15.58635485	     26.37408243	     89.95437384	      0.00000000	      0.00000000	     -2.61786590	      5.01422896	     -7.30222396	     12.49367400	     89.95437384	      0.00000000	      0.00000000
      1.48000000	      3.29491736	     -4.59305542	     -5.08473690	      0.80900981	      0.88860118	      1.46360551	    -13.38292846	      4.14303707	    -14.51063499	    -18.05250207	     -0.31507560	     11.13239655	     13.19769824	    -10.38650434	     23.23546838	      5.53272706	     13.17858126	    -15.16473151	     -0.26467450	     -0.51903521	     -5.04287188	    -13.87231730	     -7.83165282	      5.93049558	      6.85514230	     16.95259840	    -15.08976737	     14.87160697	     28.02640222	     89.95437384	      0.00000000	      0.00000000	     -3.35374201	      5.24190998	    -10.33115936	     10.93244479	     89.95437384	      0.00000000	      0.00000000
      1.49000000	      3.01281727	     -4.43886472	     -5.48768957	      0.82221753	      0.88682530	      1.46346885	    -13.84303278	      3.72425919	    -14.17761426	    -18.30094722	     -0.31941179	     10.93019219	     13.18216108	    -10.43017840	     23.64811280	      5.32879759	     14.02915711	    -14.66297557	     -0.25591720	     -0.07446759	     -4.83333403	    -13.83922600	     -7.48435327	      5.68661078	      6.85481044	     17.05136053	    -15.08919962	     14.55537854	     29.30610620	     89.95437384	      0.00000000	      0.00000000	     -4.04059144	      5.14096628	    -10.84693405	      9.16148410	     89.95437384	      0.00000000	      0.00000000
      1.50000000	      3.08106893	     -4.12950604	     -6.07828285	      0.83571264	      0.88578235	      1.46356380	    -14.54222844	      2.96515620	    -13.74382428	    -18.78801790	     -0.32791277	     10.61848552	     13.48707422	    -10.79057514	     23.43506464	      4.94058312	     14.73826755	    -14.28354461	     -0.24929488	      0.38326662	     -3.77978742	    -13.74331202	     -7.53728502	      5.19691299	      7.18512452	     16.94896232	    -15.04201431	     13.72045151	     30.66002691	     89.95437384	      0.00000000	      0.00000000	     -4.77943766	      5.25331754	    -12.95810094	      7.90818491	     89.95437384	      0.00000000	      0.00000000
      1.51000000	      2.90293648	     -3.82127531	     -6.42919405	      0.84975421	      0.88444655	      1.46324159	    -14.97056590	      2.24209090	    -13.66124148	    -19.30997440	     -0.33702263	     10.01418554	     13.84862095	    -11.45371051	     23.64943408	      4.40808986	     14.45908584	    -14.69840624	     -0.25653558	      1.25683501	     -1.59827828	    -13.45727711	     -7.14637134	      4.78518339	      7.25504786	     16.75552965	    -14.92750393	     13.03436558	     31.60005973	     89.95437384	      0.00000000	      0.00000000	     -5.66385551	      5.44103286	    -15.88619579	      6.95774181	     89.95437384	      0.00000000	      0.00000000
      1.52000000	      2.73943018	     -3.60526481	     -6.75206244	      0.86413113	      0.88322050	      1.46302018	    -15.42529844	      1.71086370	    -13.05170314	    -19.82388625	     -0.34599209	      9.30306683	     13.64211985	    -11.27741498	     23.86448763	      4.12189449	     14.74811861	    -15.61449619	     -0.27252437	      1.58346972	     -0.85433045	    -13.18094863	     -6.78257235	      4.45297083	      7.03774041	     16.70910081	    -14.71879367	     12.91516248	     32.24916914	     89.95437384	      0.00000000	      0.00000000	     -6.56796249	      5.39120235	    -16.09241707	      6.13046726	     89.95437384	      0.00000000	      0.00000000
      1.53000000	      2.49814036	     -3.17871636	     -7.19265116	      0.87843894	      0.88208403	      1.46243506	    -15.51290973	      0.72638523	    -12.97557455	    -20.73968583	     -0.36197580	      8.36350575	     14.11890695	    -11.76672389	     23.98781439	      3.29459749	     13.33525568	    -16.58143293	     -0.28940060	      2.52387756	      3.76534868	    -12.66251288	     -6.30885722	      3.92885710	      7.20123137	     16.34140480	    -14.48373065	     11.91283838	     32.86117429	     89.95437384	      0.00000000	      0.00000000	     -7.56006965	      5.56501752	    -18.64593162	      5.94974908	     89.95437384	      0.00000000	      0.00000000
